<svg width="16" height="15" viewBox="0 0 16 15" fill="none" xmlns="http://www.w3.org/2000/svg">
<path d="M7.32779 14.6555C3.28753 14.6555 0 11.368 0 7.32779C0 3.28753 3.28753 0 7.32779 0C8.73273 0 10.0996 0.40033 11.2807 1.15842C11.5126 1.30772 11.5805 1.61681 11.4312 1.8493C11.2814 2.08179 10.973 2.149 10.7405 1.99982C9.72123 1.34492 8.54086 0.999239 7.32779 0.999239C3.83838 0.999239 0.999239 3.83838 0.999239 7.32779C0.999239 10.8171 3.83838 13.6562 7.32779 13.6562C10.8171 13.6562 13.6562 10.8171 13.6562 7.32779C13.6562 7.11921 13.6462 6.9127 13.6269 6.70961C13.6004 6.43443 13.8015 6.1906 14.0759 6.16401C14.3517 6.13863 14.5948 6.33856 14.6216 6.613C14.6441 6.84818 14.6555 7.08664 14.6555 7.32779C14.6555 11.368 11.368 14.6555 7.32779 14.6555Z" fill="#cf1850"/>
<path d="M8.17287 8.99573C8.04504 8.99573 7.91709 8.94706 7.81987 8.84924L4.82215 5.85152C4.62699 5.65623 4.62699 5.33982 4.82215 5.14466C5.01732 4.9495 5.33373 4.9495 5.52889 5.14466L8.1736 7.78937L15.1475 0.815318C15.3428 0.620154 15.6592 0.620154 15.8544 0.815318C16.0496 1.01048 16.0496 1.32689 15.8544 1.52206L8.52661 8.84985C8.42866 8.94706 8.30083 8.99573 8.17287 8.99573Z" fill="#cf1850"/>
</svg>
