<svg width="50" height="50" viewBox="0 0 50 50" fill="none" xmlns="http://www.w3.org/2000/svg">
<path d="M12.5 0C10.7812 0 9.375 1.40625 9.375 3.125V46.875C9.375 48.5938 10.7812 50 12.5 50H43.75C45.4688 50 46.875 48.5938 46.875 46.875V12.5L34.375 0H12.5Z" fill="#E2E5E7"/>
<path d="M37.5 12.5H46.875L34.375 0V9.375C34.375 11.0938 35.7812 12.5 37.5 12.5Z" fill="#B0B7BD"/>
<path d="M46.875 21.875L37.5 12.5H46.875V21.875Z" fill="#CAD1D8"/>
<path d="M40.625 40.625C40.625 41.4844 39.9219 42.1875 39.0625 42.1875H4.6875C3.82812 42.1875 3.125 41.4844 3.125 40.625V25C3.125 24.1406 3.82812 23.4375 4.6875 23.4375H39.0625C39.9219 23.4375 40.625 24.1406 40.625 25V40.625Z" fill="#50BEE8"/>
<path d="M9.04023 37.5C8.62773 37.5 8.17773 37.2734 8.17773 36.725V29.6297C8.17773 29.1797 8.62773 28.8547 9.04023 28.8547H11.9012C17.6105 28.8547 17.484 37.5 12.0121 37.5H9.04023ZM9.82773 30.3781V35.975H11.9012C15.2746 35.975 15.423 30.3781 11.9012 30.3781H9.82773Z" fill="white"/>
<path d="M22.2656 37.625C19.9547 37.725 17.5547 36.1875 17.5547 33.1266C17.5547 30.0531 19.9531 28.5422 22.2656 28.5422C24.4516 28.6531 26.7375 30.1656 26.7375 33.1266C26.7375 36.0891 24.4516 37.625 22.2656 37.625ZM22.1281 30.1672C20.7281 30.1672 19.2047 31.1547 19.2047 33.1281C19.2047 35.0906 20.7297 36.0906 22.1281 36.0906C23.5656 36.0906 25.1016 35.0906 25.1016 33.1281C25.1016 31.1531 23.5656 30.1672 22.1281 30.1672Z" fill="white"/>
<path d="M28.207 33.1141C28.207 30.7031 29.7195 28.6297 32.593 28.6297C33.6805 28.6297 34.543 28.9547 35.4539 29.7422C35.7914 30.0531 35.8289 30.6031 35.4914 30.9531C35.1539 31.2516 34.6414 31.2156 34.3414 30.9156C33.8305 30.3781 33.3055 30.2297 32.593 30.2297C30.6695 30.2297 29.7461 31.5922 29.7461 33.1156C29.7461 34.6656 30.657 36.0891 32.593 36.0891C33.3055 36.0891 33.968 35.8 34.543 35.2891C34.9289 34.9891 35.4664 35.1375 35.6914 35.4391C35.8914 35.7141 35.9898 36.1766 35.5539 36.6125C34.6789 37.4266 33.6305 37.5891 32.5914 37.5891C29.5695 37.5891 28.207 35.525 28.207 33.1141Z" fill="white"/>
<path d="M39.0625 42.1875H9.375V43.75H39.0625C39.9219 43.75 40.625 43.0469 40.625 42.1875V40.625C40.625 41.4844 39.9219 42.1875 39.0625 42.1875Z" fill="#CAD1D8"/>
</svg>
