<svg width="44" height="50" viewBox="0 0 44 50" fill="none" xmlns="http://www.w3.org/2000/svg">
<path d="M9.375 0C7.65625 0 6.25 1.40625 6.25 3.125V46.875C6.25 48.5938 7.65625 50 9.375 50H40.625C42.3438 50 43.75 48.5938 43.75 46.875V12.5L31.25 0H9.375Z" fill="#E2E5E7"/>
<path d="M34.375 12.5H43.75L31.25 0V9.375C31.25 11.0938 32.6562 12.5 34.375 12.5Z" fill="#B0B7BD"/>
<path d="M43.75 21.875L34.375 12.5H43.75V21.875Z" fill="#CAD1D8"/>
<path d="M37.5 40.625C37.5 41.4844 36.7969 42.1875 35.9375 42.1875H1.5625C0.703125 42.1875 0 41.4844 0 40.625V25C0 24.1406 0.703125 23.4375 1.5625 23.4375H35.9375C36.7969 23.4375 37.5 24.1406 37.5 25V40.625Z" fill="#F15642"/>
<path d="M6.81055 29.6047C6.81055 29.1922 7.13555 28.7422 7.65898 28.7422H10.5449C12.1699 28.7422 13.6324 29.8297 13.6324 31.9141C13.6324 33.8891 12.1699 34.9891 10.5449 34.9891H8.45898V36.6391C8.45898 37.1891 8.10898 37.5 7.65898 37.5C7.24648 37.5 6.81055 37.1891 6.81055 36.6391V29.6047ZM8.45898 30.3156V33.4281H10.5449C11.3824 33.4281 12.0449 32.6891 12.0449 31.9141C12.0449 31.0406 11.3824 30.3156 10.5449 30.3156H8.45898Z" fill="white"/>
<path d="M16.0793 37.5001C15.6668 37.5001 15.2168 37.2751 15.2168 36.7266V29.6297C15.2168 29.1813 15.6668 28.8547 16.0793 28.8547H18.9402C24.6496 28.8547 24.5246 37.5001 19.0527 37.5001H16.0793ZM16.8668 30.3797V35.9766H18.9402C22.3137 35.9766 22.4637 30.3797 18.9402 30.3797H16.8668Z" fill="white"/>
<path d="M26.5494 30.4798V32.4657H29.7354C30.1854 32.4657 30.6354 32.9157 30.6354 33.3516C30.6354 33.7641 30.1854 34.1017 29.7354 34.1017H26.5494V36.7251C26.5494 37.1626 26.2385 37.4985 25.801 37.4985C25.251 37.4985 24.915 37.1626 24.915 36.7251V29.6282C24.915 29.1798 25.2525 28.8532 25.801 28.8532H30.1869C30.7369 28.8532 31.0619 29.1798 31.0619 29.6282C31.0619 30.0282 30.7369 30.4782 30.1869 30.4782H26.5494V30.4798Z" fill="white"/>
<path d="M35.9375 42.1875H6.25V43.75H35.9375C36.7969 43.75 37.5 43.0469 37.5 42.1875V40.625C37.5 41.4844 36.7969 42.1875 35.9375 42.1875Z" fill="#CAD1D8"/>
</svg>
