<svg width="33" height="34" viewBox="0 0 33 34" fill="none" xmlns="http://www.w3.org/2000/svg">
<path d="M26.0939 20.4716C25.4173 19.7671 24.6012 19.3904 23.7363 19.3904C22.8784 19.3904 22.0554 19.7601 21.3509 20.4646L19.1469 22.6617C18.9655 22.564 18.7842 22.4733 18.6098 22.3827C18.3587 22.2571 18.1216 22.1385 17.9193 22.013C15.8547 20.7017 13.9785 18.9929 12.179 16.7818C11.3071 15.6798 10.7212 14.7521 10.2957 13.8105C10.8677 13.2874 11.3978 12.7434 11.9139 12.2203C12.1092 12.025 12.3045 11.8227 12.4998 11.6274C13.9645 10.1627 13.9645 8.2655 12.4998 6.80077L10.5957 4.89663C10.3794 4.68041 10.1562 4.45721 9.94699 4.23401C9.5285 3.80157 9.08908 3.35518 8.63571 2.93669C7.95915 2.2671 7.15006 1.91138 6.29912 1.91138C5.44819 1.91138 4.62515 2.2671 3.92766 2.93669C3.92069 2.94366 3.92069 2.94366 3.91371 2.95064L1.54225 5.34302C0.649466 6.23581 0.140299 7.32389 0.0287006 8.58634C-0.138697 10.623 0.461144 12.5202 0.921486 13.7617C2.05142 16.8097 3.73934 19.6346 6.25728 22.6617C9.31228 26.3095 12.988 29.1902 17.1869 31.2199C18.7911 31.9801 20.9324 32.8799 23.3248 33.0333C23.4713 33.0403 23.6247 33.0473 23.7642 33.0473C25.3754 33.0473 26.7286 32.4684 27.7888 31.3175C27.7957 31.3036 27.8097 31.2966 27.8167 31.2826C28.1793 30.8432 28.5978 30.4456 29.0373 30.0202C29.3372 29.7342 29.6441 29.4343 29.944 29.1204C30.6345 28.402 30.9972 27.565 30.9972 26.7071C30.9972 25.8422 30.6275 25.0122 29.9231 24.3147L26.0939 20.4716ZM28.5909 27.8161C28.5839 27.8161 28.5839 27.8231 28.5909 27.8161C28.3188 28.1091 28.0399 28.3741 27.7399 28.667C27.2866 29.0995 26.8262 29.5529 26.3938 30.062C25.6893 30.8153 24.8593 31.171 23.7712 31.171C23.6666 31.171 23.555 31.171 23.4504 31.1641C21.3788 31.0315 19.4538 30.2224 18.01 29.5319C14.0622 27.6208 10.5957 24.9076 7.71503 21.469C5.33659 18.6023 3.74632 15.9518 2.69311 13.1061C2.04444 11.3693 1.8073 10.0162 1.91192 8.73979C1.98167 7.92373 2.29554 7.24717 2.87445 6.66825L5.25289 4.28981C5.59466 3.96897 5.95736 3.7946 6.31308 3.7946C6.75249 3.7946 7.10821 4.05964 7.33141 4.28284C7.33838 4.28981 7.34536 4.29679 7.35233 4.30376C7.7778 4.70133 8.18234 5.11285 8.60781 5.55227C8.82403 5.77547 9.04723 5.99866 9.27043 6.22883L11.1746 8.13298C11.9139 8.87232 11.9139 9.55585 11.1746 10.2952C10.9723 10.4975 10.777 10.6997 10.5747 10.895C9.98884 11.4949 9.43085 12.0529 8.82403 12.5969C8.81008 12.6109 8.79613 12.6178 8.78916 12.6318C8.18932 13.2316 8.30092 13.8175 8.42647 14.2151C8.43344 14.236 8.44042 14.2569 8.44739 14.2779C8.94261 15.4775 9.6401 16.6075 10.7003 17.9536L10.7073 17.9606C12.6323 20.3321 14.662 22.1804 16.901 23.5963C17.1869 23.7777 17.4799 23.9241 17.7589 24.0636C18.01 24.1892 18.2471 24.3077 18.4494 24.4333C18.4773 24.4472 18.5052 24.4682 18.5331 24.4821C18.7702 24.6007 18.9934 24.6565 19.2236 24.6565C19.8025 24.6565 20.1652 24.2938 20.2838 24.1752L22.6692 21.7898C22.9063 21.5527 23.283 21.2667 23.7224 21.2667C24.1548 21.2667 24.5106 21.5387 24.7268 21.7759C24.7338 21.7828 24.7338 21.7828 24.7407 21.7898L28.5839 25.633C29.3023 26.3444 29.3023 27.0768 28.5909 27.8161Z" fill="black"/>
<path d="M17.8356 7.86121C19.663 8.16811 21.3231 9.03299 22.6483 10.3582C23.9735 11.6835 24.8314 13.3435 25.1453 15.1709C25.222 15.6312 25.6196 15.9521 26.073 15.9521C26.1288 15.9521 26.1776 15.9451 26.2334 15.9381C26.7495 15.8544 27.0913 15.3662 27.0076 14.8501C26.6309 12.639 25.5847 10.6233 23.9875 9.02602C22.3902 7.42877 20.3745 6.38254 18.1634 6.00589C17.6473 5.92219 17.166 6.26396 17.0753 6.77313C16.9847 7.2823 17.3195 7.77751 17.8356 7.86121Z" fill="black"/>
<path d="M32.9854 14.5779C32.3646 10.937 30.6488 7.62396 28.0123 4.98745C25.3758 2.35094 22.0627 0.63512 18.4218 0.0143554C17.9127 -0.0763182 17.4314 0.272426 17.3407 0.781593C17.257 1.29773 17.5988 1.779 18.1149 1.86968C21.3652 2.42069 24.3296 3.96214 26.6871 6.31268C29.0446 8.67019 30.5791 11.6345 31.1301 14.8848C31.2068 15.3452 31.6044 15.666 32.0577 15.666C32.1135 15.666 32.1624 15.659 32.2182 15.6521C32.7273 15.5753 33.0761 15.0871 32.9854 14.5779Z" fill="black"/>
</svg>
